<svg width="600" height="600" xmlns="http://www.w3.org/2000/svg">
 <g>
  <title>Layer 1</title>
  <path id="svg_4" d="m-189,210" opacity="NaN" stroke-width="0" stroke="#000" fill="#6D97AB"/>
  <g stroke="null" id="svg_7">
   <path stroke="#000" id="svg_3" d="m445.75342,88.39892c-39.693,-35.02733 -82.50408,-63.08642 -117.62237,-66.91172c-1.91182,-0.24813 -3.89192,-0.39287 -5.98581,-0.43422l-231.12523,0c-3.68708,0 -7.32864,1.30267 -9.92325,3.72191c-2.57185,2.35721 -4.09675,5.66558 -4.09675,9.03598l0,532.44029c0,3.34972 1.43386,6.5547 4.09675,8.99462c2.66289,2.39857 6.16789,3.70124 9.92325,3.70124l417.95999,0c3.68708,0 7.21484,-1.28199 9.87773,-3.70124c2.66289,-2.41924 4.14227,-5.62422 4.14227,-8.99462l0,-354.30541c-0.81935,-41.12714 -36.27904,-85.97618 -77.24658,-123.54682zm49.16105,465.05299l-389.91998,0l0,-506.96587l217.1735,0l0,0.04135c9.46805,-0.51693 17.6388,7.98144 23.89773,27.41809c5.68994,18.50618 7.1238,42.63658 7.10104,59.36451c0.04552,12.26163 -0.61451,20.4912 -0.61451,20.4912l-1.11523,13.48159l14.93039,0.14474c0.06828,0 34.50378,0.37219 68.27924,7.34044c32.4554,6.36861 57.83252,19.06446 60.19953,33.43518c0.09104,1.28199 0.1138,2.56398 0.09104,3.76327l0,341.48549l-0.02276,0z" stroke-width="0" fill="#6D97AB"/>
   <path stroke="#000" id="svg_5" d="m421.86191,334.67931c21.95129,-25.23817 26.36364,-59.67958 14.42216,-88.64455l-44.06908,51.39064l-43.44128,-8.44603l-14.39422,-41.8464l43.95762,-51.27129c-30.23663,-7.60712 -63.5482,1.5767 -85.40279,26.71499c-23.0484,26.5019 -26.8203,63.20187 -12.55453,92.9777l-114.87001,132.09565c-12.22275,14.04408 -10.73371,35.34471 3.31047,47.56269c14.04417,12.20937 35.34053,10.7337 47.55903,-3.31054l114.73544,-131.96533c31.58324,10.1798 67.59215,1.36489 90.7472,-25.25753l-0.00001,-0.00001z" stroke-width="0" fill="#6D97AB"/>
  </g>
 </g>

</svg>